<svg width="120" height="66" viewBox="0 0 120 66" fill="none" xmlns="http://www.w3.org/2000/svg">
<path fill-rule="evenodd" clip-rule="evenodd" d="M31.4842 4.0461C33.3525 0.818698 37.6082 -0.0199368 40.9298 1.67547C52.892 7.78135 67.1072 7.78135 79.0694 1.67547C82.391 -0.019935 86.6467 0.818697 88.5151 4.0461L119.419 57.4295C121.476 60.9839 117.69 65.0548 113.996 63.2595L108.851 60.7588C99.4945 56.2113 88.5685 56.2113 79.2124 60.7588C67.0823 66.6546 52.9167 66.6546 40.7866 60.7588C31.4305 56.2113 20.5045 56.2113 11.1484 60.7588L6.00354 63.2594C2.30977 65.0547 -1.47693 60.9838 0.580676 57.4294L31.4842 4.0461Z" fill="url(#paint0_linear_83_19)"/>
<path d="M40.5513 2.41687C37.5442 0.881929 33.8088 1.69193 32.2046 4.46314L1.30107 57.8465C-0.345108 60.6901 2.68443 63.9471 5.63966 62.5108L10.7846 60.0101C20.3704 55.351 31.5647 55.351 41.1505 60.0101C53.0509 65.7942 66.9481 65.7942 78.8485 60.0101C88.4344 55.351 99.6287 55.351 109.214 60.0101L114.36 62.5108C117.315 63.9472 120.344 60.6902 118.698 57.8466L87.7947 4.46313C86.1904 1.69193 82.455 0.88193 79.4479 2.41687C67.2479 8.64409 52.7513 8.64409 40.5513 2.41687Z" stroke="url(#paint1_linear_83_19)" stroke-opacity="0.2" stroke-width="1.6648"/>
<path fill-rule="evenodd" clip-rule="evenodd" d="M58.8564 31.6935C66.8671 16.0048 69.4576 10.5243 79.476 2.28636C82.3565 -0.0821751 86.6467 0.820515 88.5151 4.04792L119.419 57.4313C121.476 60.9857 117.69 65.0567 113.996 63.2613L108.851 60.7606C99.4945 56.2131 88.5685 56.2131 79.2124 60.7606C67.0823 66.6564 52.9167 66.6564 40.7866 60.7606C31.4305 56.2131 20.5045 56.2131 11.1485 60.7606L6.00355 63.2612C2.30978 65.0566 -1.47693 60.9856 0.580668 57.4313L16.6642 29.6483C16.6642 29.6483 49.5428 49.9339 58.8564 31.6935Z" fill="url(#paint2_linear_83_19)"/>
<path d="M80.0047 2.92931C70.4629 10.7754 67.788 16.0185 60.3758 30.5475C60.1221 31.0446 59.863 31.5526 59.5978 32.072C57.127 36.911 53.0687 39.196 48.459 39.8922C43.8919 40.5819 38.7724 39.7195 34.0304 38.3089C29.2755 36.8945 24.8272 34.9065 21.5742 33.2772C19.9458 32.4616 18.6126 31.7336 17.6851 31.2087C17.4069 31.0513 17.1651 30.912 16.9626 30.7941L1.30106 57.8483C-0.3451 60.6919 2.68443 63.949 5.63967 62.5126L10.7846 60.0119C20.3704 55.3528 31.5647 55.3528 41.1505 60.0119C53.0509 65.7961 66.9481 65.7961 78.8485 60.0119C88.4344 55.3528 99.6287 55.3528 109.214 60.0119L114.36 62.5127C117.315 63.949 120.344 60.692 118.698 57.8484L87.7947 4.46495C86.1678 1.65476 82.4642 0.906937 80.0047 2.92931Z" stroke="url(#paint3_linear_83_19)" stroke-opacity="0.1" stroke-width="1.6648"/>
<defs>
<linearGradient id="paint0_linear_83_19" x1="54.1063" y1="0.819214" x2="60.3493" y2="34.1152" gradientUnits="userSpaceOnUse">
<stop stop-color="#F83600"/>
<stop offset="1" stop-color="#940000"/>
</linearGradient>
<linearGradient id="paint1_linear_83_19" x1="79.0785" y1="10.1837" x2="18.7309" y2="25.798" gradientUnits="userSpaceOnUse">
<stop stop-color="white" stop-opacity="0.48"/>
<stop offset="0.564103" stop-color="white"/>
<stop offset="1" stop-color="white" stop-opacity="0.02"/>
</linearGradient>
<linearGradient id="paint2_linear_83_19" x1="120" y1="0.951294" x2="120" y2="65.1824" gradientUnits="userSpaceOnUse">
<stop stop-color="#FE8C00"/>
<stop offset="1" stop-color="#F83600"/>
</linearGradient>
<linearGradient id="paint3_linear_83_19" x1="119.658" y1="57.0061" x2="4.16206" y2="53.8846" gradientUnits="userSpaceOnUse">
<stop stop-color="white" stop-opacity="0.48"/>
<stop offset="0.279686" stop-color="white"/>
<stop offset="0.511557" stop-color="white"/>
<stop offset="1" stop-color="white" stop-opacity="0.52"/>
</linearGradient>
</defs>
</svg>
