<svg width="600" height="81" viewBox="0 0 600 81" fill="none" xmlns="http://www.w3.org/2000/svg">
<path fill-rule="evenodd" clip-rule="evenodd" d="M39.6026 4.06012C41.9527 0.000495672 47.3059 -1.05439 51.4839 1.07819C66.5307 8.75855 84.4115 8.75855 99.4583 1.0782C103.636 -1.05439 108.99 0.000494424 111.34 4.06012L150.212 71.2091C152.8 75.68 148.037 80.8007 143.391 78.5424L136.919 75.3968C125.15 69.6767 111.407 69.6767 99.6382 75.3968C84.3801 82.8129 66.5619 82.8129 51.3038 75.3968C39.5352 69.6767 25.7918 69.6767 14.0231 75.3968L7.55156 78.5423C2.9053 80.8006 -1.85784 75.6798 0.73034 71.209L39.6026 4.06012Z" fill="url(#paint0_linear_83_116)"/>
<path d="M51.0079 2.01078C47.2253 0.0800314 42.5267 1.0989 40.5088 4.58469L1.63651 71.7335C-0.434174 75.3104 3.37657 79.4073 7.09384 77.6006L13.5654 74.4551C25.623 68.5946 39.7039 68.5946 51.7615 74.4551C66.7306 81.7307 84.2114 81.7307 99.1805 74.4551C111.238 68.5946 125.319 68.5946 137.377 74.4551L143.848 77.6007C147.566 79.4074 151.376 75.3106 149.306 71.7337L110.433 4.58469C108.416 1.0989 103.717 0.080033 99.9344 2.01078C84.5885 9.84375 66.3537 9.84375 51.0079 2.01078Z" stroke="url(#paint1_linear_83_116)" stroke-opacity="0.2" stroke-width="2.09409"/>
<path fill-rule="evenodd" clip-rule="evenodd" d="M74.0331 38.8367C84.1094 19.1025 87.368 12.2089 99.9698 1.84663C103.593 -1.13266 108.99 0.00279521 111.34 4.06242L150.212 71.2114C152.8 75.6823 148.037 80.803 143.391 78.5447L136.919 75.3991C125.15 69.679 111.407 69.679 99.6382 75.3991C84.3802 82.8152 66.5619 82.8152 51.3038 75.3991C39.5352 69.679 25.7918 69.679 14.0231 75.3991L7.55156 78.5446C2.9053 80.8029 -1.85785 75.6822 0.730322 71.2113L20.9611 36.2641C20.9611 36.2641 62.318 61.7807 74.0331 38.8367Z" fill="url(#paint2_linear_83_116)"/>
<path d="M21.3366 37.7055L1.63649 71.7359C-0.434174 75.3128 3.37656 79.4096 7.09384 77.6029L13.5654 74.4574C25.623 68.5969 39.7039 68.5969 51.7615 74.4574C66.7306 81.733 84.2114 81.733 99.1805 74.4574C111.238 68.5969 125.319 68.5969 137.377 74.4574L143.848 77.603C147.566 79.4098 151.376 75.3129 149.306 71.736L110.433 4.58699C108.387 1.05216 103.728 0.111503 100.635 2.65537C88.6326 12.5246 85.2679 19.1198 75.9443 37.3952C75.6252 38.0205 75.2992 38.6596 74.9657 39.3129C71.8577 45.3997 66.7531 48.2739 60.9546 49.1495C55.2099 50.0171 48.7702 48.9323 42.8054 47.158C36.8245 45.3789 31.2291 42.8783 27.1373 40.8288C25.089 39.8028 23.412 38.8872 22.2454 38.227C21.8954 38.0289 21.5912 37.8538 21.3366 37.7055Z" stroke="url(#paint3_linear_83_116)" stroke-opacity="0.1" stroke-width="2.09409"/>
<path d="M333.667 64.1509L306.217 27.1752L278.938 64.1509H266.271V62.5804L300.106 16.3522H312.567L346.436 62.5804V64.1509H333.667Z" fill="#1E1A33"/>
<path d="M586.057 64.1509L558.607 27.1752L531.328 64.1509H518.662V62.5804L552.496 16.3522H564.958L598.826 62.5804V64.1509H586.057Z" fill="#1E1A33"/>
<path d="M190.311 64.1509V16.3522H202.568L229.335 37.1105L256.136 16.3522H272.285V17.9198L256.136 39.9739L256.136 30.4552L230.667 50.221H228.038L202.261 29.9407V64.1509H190.311Z" fill="#1E1A33"/>
<path d="M442.699 64.1509V16.3522H454.956L481.723 37.1105L508.525 16.3522H524.673V17.9198L508.524 39.9739L508.525 30.4552L483.055 50.221H480.426L454.649 29.9407V64.1509H442.699Z" fill="#1E1A33"/>
<path d="M422.095 16.3522V27.1069H374.467C371.087 27.1069 370.575 27.6191 370.575 30.9991V49.504C370.575 52.8841 371.087 53.3962 374.467 53.3962H410.145V45.3729H390.377V34.6523H422.095V64.1509H371.736C363.235 64.1509 358.626 59.5418 358.626 51.0404V29.4627C358.626 20.9614 363.235 16.3522 371.736 16.3522H422.095Z" fill="#1E1A33"/>
<defs>
<linearGradient id="paint0_linear_83_116" x1="68.0582" y1="0.00114414" x2="75.911" y2="41.8828" gradientUnits="userSpaceOnUse">
<stop stop-color="#F83600"/>
<stop offset="1" stop-color="#940000"/>
</linearGradient>
<linearGradient id="paint1_linear_83_116" x1="99.4697" y1="11.7804" x2="23.5608" y2="31.421" gradientUnits="userSpaceOnUse">
<stop stop-color="white" stop-opacity="0.48"/>
<stop offset="0.564103" stop-color="white"/>
<stop offset="1" stop-color="white" stop-opacity="0.02"/>
</linearGradient>
<linearGradient id="paint2_linear_83_116" x1="150.943" y1="0.167297" x2="150.943" y2="80.9612" gradientUnits="userSpaceOnUse">
<stop stop-color="#FE8C00"/>
<stop offset="1" stop-color="#F83600"/>
</linearGradient>
<linearGradient id="paint3_linear_83_116" x1="150.513" y1="70.6765" x2="5.23522" y2="66.75" gradientUnits="userSpaceOnUse">
<stop stop-color="white" stop-opacity="0.48"/>
<stop offset="0.279686" stop-color="white"/>
<stop offset="0.511557" stop-color="white"/>
<stop offset="1" stop-color="white" stop-opacity="0.52"/>
</linearGradient>
</defs>
</svg>
