<svg width="400" height="203" viewBox="0 0 400 203" fill="none" xmlns="http://www.w3.org/2000/svg">
<path fill-rule="evenodd" clip-rule="evenodd" d="M149.305 6.24145C152.627 0.503853 160.192 -0.987051 166.097 2.027C187.364 12.8819 212.635 12.8819 233.901 2.027C239.806 -0.987048 247.372 0.503852 250.693 6.24145L305.633 101.145C309.291 107.464 302.559 114.701 295.992 111.51L286.845 107.064C270.212 98.9795 250.788 98.9795 234.155 107.064C212.591 117.545 187.408 117.545 165.843 107.064C149.21 98.9795 129.786 98.9795 113.153 107.064L104.006 111.509C97.4397 114.701 90.7078 107.464 94.3658 101.145L149.305 6.24145Z" fill="url(#paint0_linear_83_158)"/>
<path d="M165.425 3.34505L166.097 2.02861L165.425 3.34505C160.079 0.616264 153.438 2.05626 150.586 6.98284L95.6465 101.886C92.72 106.942 98.1058 112.732 103.36 110.178L112.506 105.733C129.547 97.45 149.448 97.45 166.49 105.733C187.646 116.016 212.352 116.016 233.508 105.733C250.55 97.45 270.451 97.45 287.492 105.733L296.639 110.179C301.893 112.732 307.279 106.942 304.352 101.887L249.413 6.98284C246.561 2.05626 239.92 0.616266 234.574 3.34505C212.885 14.4156 187.113 14.4156 165.425 3.34505Z" stroke="url(#paint1_linear_83_158)" stroke-opacity="0.2" stroke-width="2.95965"/>
<path fill-rule="evenodd" clip-rule="evenodd" d="M197.967 55.3923C212.208 27.5013 216.814 17.7583 234.624 3.11303C239.745 -1.0977 247.372 0.507084 250.693 6.24468L305.633 101.148C309.291 107.467 302.559 114.705 295.992 111.513L286.845 107.067C270.212 98.9827 250.788 98.9827 234.155 107.067C212.591 117.548 187.408 117.548 165.843 107.067C149.21 98.9827 129.786 98.9827 113.153 107.067L104.006 111.513C97.4397 114.704 90.7078 107.467 94.3658 101.148L122.959 51.7564C122.959 51.7564 181.41 87.8197 197.967 55.3923Z" fill="url(#paint2_linear_83_158)"/>
<path d="M235.564 4.25605C218.601 18.2046 213.845 27.5258 200.668 53.355C200.217 54.2388 199.756 55.1419 199.285 56.0652C194.892 64.6679 187.678 68.7301 179.483 69.9677C171.363 71.1939 162.262 69.6607 153.832 67.153C145.379 64.6386 137.471 61.1043 131.688 58.2077C128.793 56.7578 126.423 55.4636 124.774 54.5305C124.279 54.2506 123.849 54.0031 123.489 53.7935L95.6465 101.89C92.7199 106.945 98.1058 112.735 103.36 110.182L112.506 105.736C129.547 97.4533 149.448 97.4533 166.49 105.736C187.646 116.019 212.352 116.019 233.508 105.736C250.55 97.4533 270.451 97.4533 287.492 105.736L296.639 110.182C301.893 112.735 307.279 106.945 304.352 101.89L249.413 6.98608C246.521 1.99018 239.936 0.660724 235.564 4.25605Z" stroke="url(#paint3_linear_83_158)" stroke-opacity="0.1" stroke-width="2.95965"/>
<path d="M140.269 202.19L113.41 170.785L86.7183 202.19H74.3245V200.856L107.43 161.593H119.623L152.763 200.856V202.19H140.269Z" fill="#F6F6F7"/>
<path d="M387.223 202.19L360.364 170.785L333.673 202.19H321.279V200.856L354.385 161.593H366.578L399.717 200.856V202.19H387.223Z" fill="#F6F6F7"/>
<path d="M0.000793457 202.19V161.593H11.9937L38.1842 179.224L64.4082 161.593H80.209V162.925L64.4078 181.656L64.4082 173.571L39.4871 190.359H36.9148L11.693 173.134V202.19H0.000793457Z" fill="#F6F6F7"/>
<path d="M246.953 202.19V161.593H258.946L285.136 179.224L311.36 161.593H327.161V162.925L311.36 181.656L311.36 173.571L286.439 190.359H283.867L258.645 173.134V202.19H246.953Z" fill="#F6F6F7"/>
<path d="M226.792 161.593V170.727H180.19C176.883 170.727 176.382 171.162 176.382 174.033V189.75C176.382 192.621 176.883 193.056 180.19 193.056H215.1V186.241H195.758V177.136H226.792V202.19H177.518C169.2 202.19 164.69 198.275 164.69 191.055V172.728C164.69 165.508 169.2 161.593 177.518 161.593H226.792Z" fill="#F6F6F7"/>
<defs>
<linearGradient id="paint0_linear_83_158" x1="189.522" y1="0.50477" x2="200.621" y2="59.6975" gradientUnits="userSpaceOnUse">
<stop stop-color="#F83600"/>
<stop offset="1" stop-color="#940000"/>
</linearGradient>
<linearGradient id="paint1_linear_83_158" x1="233.917" y1="17.1527" x2="126.633" y2="44.9114" gradientUnits="userSpaceOnUse">
<stop stop-color="white" stop-opacity="0.48"/>
<stop offset="0.564103" stop-color="white"/>
<stop offset="1" stop-color="white" stop-opacity="0.02"/>
</linearGradient>
<linearGradient id="paint2_linear_83_158" x1="306.666" y1="0.73958" x2="306.666" y2="114.928" gradientUnits="userSpaceOnUse">
<stop stop-color="#FE8C00"/>
<stop offset="1" stop-color="#F83600"/>
</linearGradient>
<linearGradient id="paint3_linear_83_158" x1="306.059" y1="100.392" x2="100.733" y2="94.843" gradientUnits="userSpaceOnUse">
<stop stop-color="white" stop-opacity="0.48"/>
<stop offset="0.279686" stop-color="white"/>
<stop offset="0.511557" stop-color="white"/>
<stop offset="1" stop-color="white" stop-opacity="0.52"/>
</linearGradient>
</defs>
</svg>
